<svg width="205" height="30" viewBox="0 0 205 30" fill="none" xmlns="http://www.w3.org/2000/svg">
<path fill-rule="evenodd" clip-rule="evenodd" d="M15 20C17.7614 20 20 17.7614 20 15C20 12.2386 17.7614 10 15 10C12.2386 10 10 12.2386 10 15C10 17.7614 12.2386 20 15 20ZM15 22.5C19.1421 22.5 22.5 19.1421 22.5 15C22.5 10.8579 19.1421 7.5 15 7.5C10.8579 7.5 7.5 10.8579 7.5 15C7.5 19.1421 10.8579 22.5 15 22.5Z" fill="#335DFF"/>
<path fill-rule="evenodd" clip-rule="evenodd" d="M13.75 0H16.25V5.07737C15.8405 5.0263 15.4233 5 15 5C14.5767 5 14.1595 5.0263 13.75 5.07737V0ZM8.86788 7.10023L5.27717 3.50951L3.5094 5.27728L7.10013 8.86801C7.61339 8.20773 8.20761 7.6135 8.86788 7.10023ZM5.07737 13.75H0V16.25H5.07737C5.0263 15.8405 5 15.4233 5 15C5 14.5767 5.0263 14.1595 5.07737 13.75ZM7.10013 21.132L3.50939 24.7227L5.27716 26.4905L8.86788 22.8998C8.20761 22.3865 7.61339 21.7923 7.10013 21.132ZM13.75 24.9226V30H16.25V24.9226C15.8405 24.9737 15.4233 25 15 25C14.5767 25 14.1595 24.9737 13.75 24.9226ZM21.132 22.8999L24.7226 26.4905L26.4904 24.7227L22.8998 21.1321C22.3865 21.7924 21.7923 22.3866 21.132 22.8999ZM24.9226 16.25H30V13.75H24.9226C24.9737 14.1595 25 14.5767 25 15C25 15.4233 24.9737 15.8405 24.9226 16.25ZM22.8998 8.86788L26.4904 5.27729L24.7226 3.50952L21.132 7.10013C21.7923 7.61339 22.3865 8.20761 22.8998 8.86788Z" fill="#335DFF"/>
<path d="M50.226 24L44.726 8.336H46.574L51.37 22.46H50.666L55.572 8.336L56.958 8.358L61.776 22.46H61.094L65.934 8.336H67.716L62.238 24H60.698L55.99 10.492H56.474L51.744 24H50.226ZM78.0046 22.68C77.5206 23.1347 76.8973 23.494 76.1346 23.758C75.3866 24.022 74.6166 24.154 73.8246 24.154C72.6806 24.154 71.6906 23.9267 70.8546 23.472C70.0333 23.0173 69.3953 22.3647 68.9406 21.514C68.5006 20.6487 68.2806 19.622 68.2806 18.434C68.2806 17.29 68.5006 16.2853 68.9406 15.42C69.3806 14.5547 69.9893 13.88 70.7666 13.396C71.5586 12.912 72.4679 12.67 73.4946 12.67C74.4773 12.67 75.3206 12.89 76.0246 13.33C76.7286 13.7553 77.2639 14.3713 77.6306 15.178C78.0119 15.9847 78.2026 16.9527 78.2026 18.082V18.412H69.8426V17.246H77.1906L76.6186 18.06C76.6479 16.7693 76.3913 15.7793 75.8486 15.09C75.3206 14.4007 74.5433 14.056 73.5166 14.056C72.4459 14.056 71.6026 14.4373 70.9866 15.2C70.3853 15.948 70.0846 16.9893 70.0846 18.324C70.0846 19.7613 70.3999 20.8467 71.0306 21.58C71.6759 22.3133 72.6146 22.68 73.8466 22.68C74.4919 22.68 75.1079 22.5773 75.6946 22.372C76.2959 22.152 76.8679 21.822 77.4106 21.382L78.0046 22.68ZM85.1534 24.154C84.1707 24.154 83.3054 23.9267 82.5574 23.472C81.8241 23.0027 81.2521 22.3427 80.8414 21.492C80.4454 20.6267 80.2474 19.6147 80.2474 18.456C80.2474 17.2973 80.4527 16.2853 80.8634 15.42C81.2741 14.5547 81.8461 13.88 82.5794 13.396C83.3274 12.912 84.1854 12.67 85.1534 12.67C86.1654 12.67 87.0234 12.9193 87.7274 13.418C88.4314 13.9167 88.9081 14.628 89.1574 15.552L88.8934 15.728V12.934H90.6534V24H88.8934V21.14L89.1574 21.272C88.9081 22.196 88.4314 22.9073 87.7274 23.406C87.0234 23.9047 86.1654 24.154 85.1534 24.154ZM85.5054 22.68C86.5907 22.68 87.4267 22.3133 88.0134 21.58C88.6001 20.832 88.8934 19.776 88.8934 18.412C88.8934 17.048 88.5927 15.9993 87.9914 15.266C87.4047 14.5327 86.5761 14.166 85.5054 14.166C84.4201 14.166 83.5694 14.5473 82.9534 15.31C82.3521 16.058 82.0514 17.1067 82.0514 18.456C82.0514 19.8053 82.3521 20.8467 82.9534 21.58C83.5694 22.3133 84.4201 22.68 85.5054 22.68ZM92.5368 14.342V12.934H99.6428V14.342H92.5368ZM99.5988 22.416V23.934C99.3495 24.0073 99.1001 24.0587 98.8508 24.088C98.6161 24.132 98.3521 24.154 98.0588 24.154C97.0321 24.154 96.2108 23.8607 95.5948 23.274C94.9935 22.6873 94.6928 21.8073 94.6928 20.634V10.096L96.4748 9.458V20.392C96.4748 20.9787 96.5555 21.4333 96.7168 21.756C96.8928 22.0787 97.1275 22.306 97.4208 22.438C97.7141 22.5553 98.0441 22.614 98.4108 22.614C98.6308 22.614 98.8288 22.5993 99.0048 22.57C99.1808 22.5407 99.3788 22.4893 99.5988 22.416ZM101.79 24V7.808H103.572V15.178L103.286 15.398C103.594 14.5033 104.108 13.8287 104.826 13.374C105.545 12.9047 106.374 12.67 107.312 12.67C109.967 12.67 111.294 14.1293 111.294 17.048V24H109.512V17.136C109.512 16.1093 109.307 15.3613 108.896 14.892C108.486 14.408 107.84 14.166 106.96 14.166C105.934 14.166 105.112 14.4813 104.496 15.112C103.88 15.7427 103.572 16.5933 103.572 17.664V24H101.79ZM123.723 22.68C123.239 23.1347 122.616 23.494 121.853 23.758C121.105 24.022 120.335 24.154 119.543 24.154C118.399 24.154 117.409 23.9267 116.573 23.472C115.752 23.0173 115.114 22.3647 114.659 21.514C114.219 20.6487 113.999 19.622 113.999 18.434C113.999 17.29 114.219 16.2853 114.659 15.42C115.099 14.5547 115.708 13.88 116.485 13.396C117.277 12.912 118.187 12.67 119.213 12.67C120.196 12.67 121.039 12.89 121.743 13.33C122.447 13.7553 122.983 14.3713 123.349 15.178C123.731 15.9847 123.921 16.9527 123.921 18.082V18.412H115.561V17.246H122.909L122.337 18.06C122.367 16.7693 122.11 15.7793 121.567 15.09C121.039 14.4007 120.262 14.056 119.235 14.056C118.165 14.056 117.321 14.4373 116.705 15.2C116.104 15.948 115.803 16.9893 115.803 18.324C115.803 19.7613 116.119 20.8467 116.749 21.58C117.395 22.3133 118.333 22.68 119.565 22.68C120.211 22.68 120.827 22.5773 121.413 22.372C122.015 22.152 122.587 21.822 123.129 21.382L123.723 22.68ZM126.626 24V16.036C126.626 15.5227 126.611 15.0093 126.582 14.496C126.567 13.968 126.523 13.4473 126.45 12.934H128.144L128.386 15.662L128.144 15.596C128.349 14.628 128.789 13.902 129.464 13.418C130.153 12.9193 130.923 12.67 131.774 12.67C131.965 12.67 132.141 12.6847 132.302 12.714C132.478 12.7287 132.639 12.758 132.786 12.802L132.742 14.43C132.405 14.3127 132.016 14.254 131.576 14.254C130.813 14.254 130.197 14.4227 129.728 14.76C129.273 15.0973 128.936 15.53 128.716 16.058C128.511 16.5713 128.408 17.114 128.408 17.686V24H126.626ZM151.102 20.524H143.776L142.28 24H138.826L146.02 8.336H148.792L155.986 24H152.598L151.102 20.524ZM149.98 17.906L147.45 12.032L144.92 17.906H149.98ZM157.324 8.336H164.43C166.16 8.336 167.502 8.754 168.456 9.59C169.424 10.426 169.908 11.5627 169.908 13C169.908 14.4227 169.424 15.5593 168.456 16.41C167.488 17.246 166.146 17.664 164.43 17.664H160.756V24H157.324V8.336ZM163.99 15.046C165.779 15.046 166.674 14.3713 166.674 13.022C166.674 11.658 165.779 10.976 163.99 10.976H160.756V15.046H163.99ZM172.169 8.336H179.275C181.006 8.336 182.348 8.754 183.301 9.59C184.269 10.426 184.753 11.5627 184.753 13C184.753 14.4227 184.269 15.5593 183.301 16.41C182.333 17.246 180.991 17.664 179.275 17.664H175.601V24H172.169V8.336ZM178.835 15.046C180.625 15.046 181.519 14.3713 181.519 13.022C181.519 11.658 180.625 10.976 178.835 10.976H175.601V15.046H178.835Z" fill="#335DFF"/>
</svg>
